<svg width="22" height="18" viewBox="0 0 22 18" fill="none" xmlns="http://www.w3.org/2000/svg">
<path d="M16.5 0.5C14.55 0.5 12.45 0.9 11 2C9.55 0.9 7.45 0.5 5.5 0.5C4.05 0.5 2.51 0.72 1.22 1.29C0.49 1.62 0 2.33 0 3.14V14.42C0 15.72 1.22 16.68 2.48 16.36C3.46 16.11 4.5 16 5.5 16C7.06 16 8.72 16.26 10.06 16.92C10.66 17.22 11.34 17.22 11.93 16.92C13.27 16.25 14.93 16 16.49 16C17.49 16 18.53 16.11 19.51 16.36C20.77 16.69 21.99 15.73 21.99 14.42V3.14C21.99 2.33 21.5 1.62 20.77 1.29C19.49 0.72 17.95 0.5 16.5 0.5ZM20 13.23C20 13.86 19.42 14.32 18.8 14.21C18.05 14.07 17.27 14.01 16.5 14.01C14.8 14.01 12.35 14.66 11 15.51V4C12.35 3.15 14.8 2.5 16.5 2.5C17.42 2.5 18.33 2.59 19.2 2.78C19.66 2.88 20 3.29 20 3.76V13.23Z" fill="url(#paint0_linear_2_258)"/>
<path d="M12.9799 7.0101C12.6599 7.0101 12.3699 6.8101 12.2699 6.4901C12.1399 6.1001 12.3599 5.6701 12.7499 5.5501C14.2899 5.0501 16.2799 4.8901 18.1099 5.1001C18.5199 5.1501 18.8199 5.5201 18.7699 5.9301C18.7199 6.3401 18.3499 6.6401 17.9399 6.5901C16.3199 6.4001 14.5499 6.5501 13.2099 6.9801C13.1299 6.9901 13.0499 7.0101 12.9799 7.0101Z" fill="url(#paint1_linear_2_258)"/>
<path d="M12.9799 9.67001C12.6599 9.67001 12.3699 9.47001 12.2699 9.15001C12.1399 8.76001 12.3599 8.33001 12.7499 8.21001C14.2799 7.71001 16.2799 7.55001 18.1099 7.76001C18.5199 7.81001 18.8199 8.18001 18.7699 8.59001C18.7199 9.00001 18.3499 9.30001 17.9399 9.25001C16.3199 9.06001 14.5499 9.21001 13.2099 9.64001C13.1299 9.66001 13.0499 9.67001 12.9799 9.67001Z" fill="url(#paint2_linear_2_258)"/>
<path d="M12.9799 12.3299C12.6599 12.3299 12.3699 12.1299 12.2699 11.8099C12.1399 11.4199 12.3599 10.9899 12.7499 10.8699C14.2799 10.3699 16.2799 10.2099 18.1099 10.4199C18.5199 10.4699 18.8199 10.8399 18.7699 11.2499C18.7199 11.6599 18.3499 11.9499 17.9399 11.9099C16.3199 11.7199 14.5499 11.8699 13.2099 12.2999C13.1299 12.3199 13.0499 12.3299 12.9799 12.3299Z" fill="url(#paint3_linear_2_258)"/>
<defs>
<linearGradient id="paint0_linear_2_258" x1="10.995" y1="0.5" x2="10.995" y2="17.145" gradientUnits="userSpaceOnUse">
<stop stop-color="#B629F8"/>
<stop offset="1" stop-color="#800ADD"/>
</linearGradient>
<linearGradient id="paint1_linear_2_258" x1="15.5039" y1="5.01001" x2="15.5039" y2="7.0101" gradientUnits="userSpaceOnUse">
<stop stop-color="#B629F8"/>
<stop offset="1" stop-color="#800ADD"/>
</linearGradient>
<linearGradient id="paint2_linear_2_258" x1="15.5039" y1="7.66992" x2="15.5039" y2="9.67001" gradientUnits="userSpaceOnUse">
<stop stop-color="#B629F8"/>
<stop offset="1" stop-color="#800ADD"/>
</linearGradient>
<linearGradient id="paint3_linear_2_258" x1="15.5039" y1="10.3298" x2="15.5039" y2="12.3299" gradientUnits="userSpaceOnUse">
<stop stop-color="#B629F8"/>
<stop offset="1" stop-color="#800ADD"/>
</linearGradient>
</defs>
</svg>
