<svg width="201" height="36" viewBox="0 0 201 36" fill="none" xmlns="http://www.w3.org/2000/svg">
<path d="M14.566 4.55595C16.5727 4.55595 18.35 4.87128 19.898 5.50195C21.4747 6.10395 22.9367 6.97828 24.284 8.12495L20.973 11.5649C19.9124 10.7623 18.909 10.1746 17.963 9.80195C17.0457 9.42928 15.9994 9.24295 14.824 9.24295C12.5594 9.24295 10.7247 10.1459 9.32003 11.9519C7.94403 13.7293 7.25603 16.4526 7.25603 20.1219C7.25603 23.9919 7.78637 26.7726 8.84703 28.4639C9.93637 30.1266 11.6134 30.9579 13.878 30.9579C15.512 30.9579 16.9884 30.5996 18.307 29.8829V22.6159H14.136L13.491 18.0149H24.456V32.6779C22.908 33.6239 21.231 34.3693 19.425 34.9139C17.6477 35.4299 15.8417 35.688 14.007 35.688C9.62103 35.688 6.2957 34.3693 4.03103 31.7319C1.76637 29.0946 0.634033 25.2103 0.634033 20.0789C0.634033 16.8396 1.25037 14.0446 2.48303 11.6939C3.7157 9.34328 5.37837 7.56595 7.47103 6.36195C9.59237 5.15795 11.9574 4.55595 14.566 4.55595Z" fill="#141414"/>
<path d="M48.2189 35H42.9299L42.6289 31.9469C41.8262 33.2083 40.8516 34.1543 39.7049 34.785C38.5582 35.387 37.2252 35.688 35.7059 35.688C33.6419 35.688 32.0652 35.0716 30.9759 33.8389C29.8866 32.5776 29.3419 30.8289 29.3419 28.5929V12.2099H35.4479V27.8189C35.4479 29.0229 35.6486 29.8829 36.0499 30.3989C36.4512 30.8863 37.0819 31.1299 37.9419 31.1299C39.5759 31.1299 40.9662 30.1409 42.1129 28.1629V12.2099H48.2189V35Z" fill="#141414"/>
<path d="M60.3543 12.2099V35H54.2483V12.2099H60.3543ZM57.2583 0.470947C58.3476 0.470947 59.2363 0.814947 59.9243 1.50295C60.641 2.16228 60.9993 3.00795 60.9993 4.03995C60.9993 5.07195 60.641 5.93195 59.9243 6.61995C59.2363 7.27928 58.3476 7.60895 57.2583 7.60895C56.169 7.60895 55.2803 7.27928 54.5923 6.61995C53.9043 5.93195 53.5603 5.07195 53.5603 4.03995C53.5603 3.00795 53.9043 2.16228 54.5923 1.50295C55.2803 0.814947 56.169 0.470947 57.2583 0.470947Z" fill="#141414"/>
<path d="M72.0601 35.688C70.1967 35.688 68.7491 35.1576 67.7171 34.0969C66.6851 33.0076 66.1691 31.4739 66.1691 29.4959V3.13695L72.2751 2.44895V29.3239C72.2751 30.3273 72.6907 30.8289 73.5221 30.8289C73.9807 30.8289 74.3821 30.7429 74.7261 30.5709L75.9731 34.9139C74.7977 35.4299 73.4934 35.688 72.0601 35.688Z" fill="#141414"/>
<path d="M91.8357 11.5219C93.8137 11.5219 95.3617 12.1383 96.4797 13.3709C97.6264 14.5749 98.1997 16.2519 98.1997 18.4019V35H92.0937V19.4339C92.0937 18.2013 91.8787 17.3413 91.4487 16.8539C91.0187 16.3379 90.4024 16.0799 89.5997 16.0799C87.9944 16.0799 86.5324 17.1263 85.2137 19.2189V35H79.1077V3.13695L85.2137 2.49195V14.7899C86.131 13.7006 87.12 12.8836 88.1807 12.3389C89.27 11.7943 90.4884 11.5219 91.8357 11.5219Z" fill="#141414"/>
<path d="M123.273 23.0889C123.273 23.3756 123.23 24.1639 123.144 25.4539H108.911C109.112 27.5179 109.671 28.9799 110.588 29.8399C111.505 30.6999 112.752 31.1299 114.329 31.1299C115.304 31.1299 116.221 30.9723 117.081 30.6569C117.941 30.3416 118.873 29.8399 119.876 29.1519L122.413 32.5919C119.862 34.6559 116.981 35.688 113.77 35.688C110.187 35.688 107.435 34.6129 105.514 32.4629C103.593 30.3129 102.633 27.4033 102.633 23.7339C102.633 21.4119 103.034 19.3336 103.837 17.4989C104.668 15.6356 105.858 14.1736 107.406 13.1129C108.983 12.0523 110.846 11.5219 112.996 11.5219C116.235 11.5219 118.758 12.5396 120.564 14.5749C122.37 16.6103 123.273 19.4483 123.273 23.0889ZM117.21 21.3689C117.21 17.5849 115.848 15.6929 113.125 15.6929C111.864 15.6929 110.875 16.1659 110.158 17.1119C109.47 18.0293 109.054 19.5343 108.911 21.6269H117.21V21.3689Z" fill="#141414"/>
<path d="M139.475 11.5649C140.163 11.5649 140.922 11.6796 141.754 11.9089L140.722 17.7999C139.919 17.5993 139.245 17.4989 138.701 17.4989C137.353 17.4989 136.307 17.9719 135.562 18.9179C134.816 19.8639 134.229 21.2973 133.799 23.2179V35H127.693V12.2099H132.982L133.541 16.6389C134.085 15.0336 134.874 13.7866 135.906 12.8979C136.966 12.0093 138.156 11.5649 139.475 11.5649Z" fill="#141414"/>
<path d="M169.422 11.5219C171.228 11.5219 172.676 12.1383 173.765 13.3709C174.883 14.6036 175.442 16.2806 175.442 18.4019V35H169.336V19.4339C169.336 17.1979 168.591 16.0799 167.1 16.0799C166.298 16.0799 165.595 16.3379 164.993 16.8539C164.391 17.3699 163.775 18.1726 163.144 19.2619V35H157.038V19.4339C157.038 17.1979 156.293 16.0799 154.802 16.0799C154 16.0799 153.297 16.3523 152.695 16.8969C152.093 17.4129 151.491 18.2013 150.889 19.2619V35H144.783V12.2099H150.072L150.545 15.0479C151.405 13.9013 152.366 13.0269 153.426 12.4249C154.516 11.8229 155.763 11.5219 157.167 11.5219C158.457 11.5219 159.575 11.8516 160.521 12.5109C161.467 13.1416 162.155 14.0446 162.585 15.2199C163.531 13.9873 164.549 13.0699 165.638 12.4679C166.756 11.8373 168.018 11.5219 169.422 11.5219Z" fill="#141414"/>
<path d="M200.497 23.0889C200.497 23.3756 200.454 24.1639 200.368 25.4539H186.135C186.335 27.5179 186.894 28.9799 187.812 29.8399C188.729 30.6999 189.976 31.1299 191.553 31.1299C192.527 31.1299 193.445 30.9723 194.305 30.6569C195.165 30.3416 196.096 29.8399 197.1 29.1519L199.637 32.5919C197.085 34.6559 194.204 35.688 190.994 35.688C187.41 35.688 184.658 34.6129 182.738 32.4629C180.817 30.3129 179.857 27.4033 179.857 23.7339C179.857 21.4119 180.258 19.3336 181.061 17.4989C181.892 15.6356 183.082 14.1736 184.63 13.1129C186.206 12.0523 188.07 11.5219 190.22 11.5219C193.459 11.5219 195.982 12.5396 197.788 14.5749C199.594 16.6103 200.497 19.4483 200.497 23.0889ZM194.434 21.3689C194.434 17.5849 193.072 15.6929 190.349 15.6929C189.087 15.6929 188.098 16.1659 187.382 17.1119C186.694 18.0293 186.278 19.5343 186.135 21.6269H194.434V21.3689Z" fill="#141414"/>
</svg>
